<mxfile host="app.diagrams.net" modified="2023-12-01T07:15:16.936Z" agent="Mozilla/5.0 (Windows NT 10.0; Win64; x64) AppleWebKit/537.36 (KHTML, like Gecko) Chrome/119.0.0.0 Safari/537.36" etag="Ef5hIiDQ3mEFAC8AeLtJ" version="22.1.5" type="github">
  <diagram name="Page-1" id="5f0bae14-7c28-e335-631c-24af17079c00">
    <mxGraphModel dx="1311" dy="712" grid="1" gridSize="10" guides="1" tooltips="1" connect="1" arrows="1" fold="1" page="1" pageScale="1" pageWidth="1100" pageHeight="850" background="none" math="0" shadow="0">
      <root>
        <mxCell id="0" />
        <mxCell id="1" parent="0" />
        <mxCell id="EdX5NU1P-sAoi4BbQS1M-27" value="LOAD PAGE MENU" style="strokeWidth=2;html=1;shape=mxgraph.flowchart.start_1;whiteSpace=wrap;" vertex="1" parent="1">
          <mxGeometry x="500" y="10" width="100" height="60" as="geometry" />
        </mxCell>
        <mxCell id="EdX5NU1P-sAoi4BbQS1M-28" value="Check File JSON dan Conection Databse" style="rounded=1;whiteSpace=wrap;html=1;absoluteArcSize=1;arcSize=14;strokeWidth=2;" vertex="1" parent="1">
          <mxGeometry x="500" y="110" width="100" height="70" as="geometry" />
        </mxCell>
        <mxCell id="EdX5NU1P-sAoi4BbQS1M-29" value="On Process" style="rounded=1;whiteSpace=wrap;html=1;absoluteArcSize=1;arcSize=14;strokeWidth=2;" vertex="1" parent="1">
          <mxGeometry x="670" y="320" width="100" height="60" as="geometry" />
        </mxCell>
        <mxCell id="EdX5NU1P-sAoi4BbQS1M-32" style="edgeStyle=orthogonalEdgeStyle;rounded=0;orthogonalLoop=1;jettySize=auto;html=1;exitX=0.5;exitY=0;exitDx=0;exitDy=0;entryX=0.5;entryY=1;entryDx=0;entryDy=0;" edge="1" parent="1" source="EdX5NU1P-sAoi4BbQS1M-42" target="EdX5NU1P-sAoi4BbQS1M-28">
          <mxGeometry relative="1" as="geometry">
            <mxPoint x="600" y="230" as="sourcePoint" />
          </mxGeometry>
        </mxCell>
        <mxCell id="EdX5NU1P-sAoi4BbQS1M-33" style="edgeStyle=orthogonalEdgeStyle;rounded=0;orthogonalLoop=1;jettySize=auto;html=1;exitX=0.5;exitY=0;exitDx=0;exitDy=0;entryX=0.5;entryY=1;entryDx=0;entryDy=0;entryPerimeter=0;" edge="1" parent="1" source="EdX5NU1P-sAoi4BbQS1M-28" target="EdX5NU1P-sAoi4BbQS1M-27">
          <mxGeometry relative="1" as="geometry" />
        </mxCell>
        <mxCell id="EdX5NU1P-sAoi4BbQS1M-36" style="edgeStyle=orthogonalEdgeStyle;rounded=0;orthogonalLoop=1;jettySize=auto;html=1;exitX=1;exitY=0.5;exitDx=0;exitDy=0;entryX=0.5;entryY=0;entryDx=0;entryDy=0;" edge="1" parent="1" source="EdX5NU1P-sAoi4BbQS1M-42" target="EdX5NU1P-sAoi4BbQS1M-29">
          <mxGeometry relative="1" as="geometry">
            <mxPoint x="650" y="260" as="sourcePoint" />
          </mxGeometry>
        </mxCell>
        <mxCell id="EdX5NU1P-sAoi4BbQS1M-37" value="YES" style="edgeLabel;html=1;align=center;verticalAlign=middle;resizable=0;points=[];" vertex="1" connectable="0" parent="EdX5NU1P-sAoi4BbQS1M-36">
          <mxGeometry x="0.031" relative="1" as="geometry">
            <mxPoint as="offset" />
          </mxGeometry>
        </mxCell>
        <mxCell id="EdX5NU1P-sAoi4BbQS1M-39" style="edgeStyle=orthogonalEdgeStyle;rounded=0;orthogonalLoop=1;jettySize=auto;html=1;exitX=0;exitY=0.5;exitDx=0;exitDy=0;entryX=0.5;entryY=0;entryDx=0;entryDy=0;" edge="1" parent="1" source="EdX5NU1P-sAoi4BbQS1M-42" target="EdX5NU1P-sAoi4BbQS1M-38">
          <mxGeometry relative="1" as="geometry">
            <mxPoint x="550" y="260" as="sourcePoint" />
          </mxGeometry>
        </mxCell>
        <mxCell id="EdX5NU1P-sAoi4BbQS1M-38" value="SHOW DASHBOARD PAGE" style="rounded=1;whiteSpace=wrap;html=1;absoluteArcSize=1;arcSize=14;strokeWidth=2;" vertex="1" parent="1">
          <mxGeometry x="420" y="310" width="100" height="70" as="geometry" />
        </mxCell>
        <mxCell id="EdX5NU1P-sAoi4BbQS1M-40" value="DASBOARD PAGE" style="strokeWidth=2;html=1;shape=mxgraph.flowchart.start_1;whiteSpace=wrap;" vertex="1" parent="1">
          <mxGeometry x="110" y="10" width="100" height="60" as="geometry" />
        </mxCell>
        <UserObject label="Codition" treeRoot="1" id="EdX5NU1P-sAoi4BbQS1M-42">
          <mxCell style="whiteSpace=wrap;html=1;align=center;treeFolding=1;treeMoving=1;newEdgeStyle={&quot;edgeStyle&quot;:&quot;elbowEdgeStyle&quot;,&quot;startArrow&quot;:&quot;none&quot;,&quot;endArrow&quot;:&quot;none&quot;};" vertex="1" parent="1">
            <mxGeometry x="550" y="230" width="120" height="60" as="geometry" />
          </mxCell>
        </UserObject>
      </root>
    </mxGraphModel>
  </diagram>
</mxfile>
